<mxfile host="app.diagrams.net" agent="Mozilla/5.0 (Windows NT 10.0; Win64; x64) AppleWebKit/537.36 (KHTML, like Gecko) Chrome/129.0.0.0 Safari/537.36" version="24.7.17">
  <diagram name="Page-1" id="2drP-jOd6p8DeifVVBKL">
    <mxGraphModel dx="965" dy="511" grid="1" gridSize="10" guides="1" tooltips="1" connect="1" arrows="1" fold="1" page="1" pageScale="1" pageWidth="1500" pageHeight="1100" math="0" shadow="0">
      <root>
        <mxCell id="0" />
        <mxCell id="1" parent="0" />
        <mxCell id="ne-NyYdUk1y-TgcKGD3K-4" value="&lt;font style=&quot;font-size: 18px;&quot;&gt;Test Loader&lt;/font&gt;" style="rounded=1;whiteSpace=wrap;html=1;labelPosition=center;verticalLabelPosition=top;align=center;verticalAlign=bottom;fillColor=#a0522d;strokeColor=#6D1F00;fontColor=#000000;" vertex="1" parent="1">
          <mxGeometry x="100" y="350" width="350" height="920" as="geometry" />
        </mxCell>
        <mxCell id="ne-NyYdUk1y-TgcKGD3K-13" style="edgeStyle=orthogonalEdgeStyle;rounded=0;orthogonalLoop=1;jettySize=auto;html=1;entryX=0.5;entryY=0;entryDx=0;entryDy=0;" edge="1" parent="1" source="ne-NyYdUk1y-TgcKGD3K-8" target="ne-NyYdUk1y-TgcKGD3K-10">
          <mxGeometry relative="1" as="geometry" />
        </mxCell>
        <mxCell id="ne-NyYdUk1y-TgcKGD3K-8" value="Test Files" style="image;aspect=fixed;html=1;points=[];align=center;fontSize=12;image=img/lib/azure2/general/Files.svg;labelPosition=center;verticalLabelPosition=top;verticalAlign=bottom;" vertex="1" parent="1">
          <mxGeometry x="150" y="415" width="64" height="70" as="geometry" />
        </mxCell>
        <mxCell id="ne-NyYdUk1y-TgcKGD3K-9" value="IN PROGRESS: Remote Test Results" style="rounded=1;whiteSpace=wrap;html=1;fillColor=#fad9d5;strokeColor=#ae4132;labelPosition=center;verticalLabelPosition=middle;align=center;verticalAlign=top;" vertex="1" parent="1">
          <mxGeometry x="1120" y="400" width="270" height="320" as="geometry" />
        </mxCell>
        <mxCell id="ne-NyYdUk1y-TgcKGD3K-16" style="edgeStyle=orthogonalEdgeStyle;rounded=0;orthogonalLoop=1;jettySize=auto;html=1;entryX=0;entryY=0.5;entryDx=0;entryDy=0;" edge="1" parent="1" source="ne-NyYdUk1y-TgcKGD3K-10" target="ne-NyYdUk1y-TgcKGD3K-14">
          <mxGeometry relative="1" as="geometry" />
        </mxCell>
        <mxCell id="ne-NyYdUk1y-TgcKGD3K-10" value="&lt;b&gt;Read Test files&lt;/b&gt;" style="rounded=1;whiteSpace=wrap;html=1;" vertex="1" parent="1">
          <mxGeometry x="122" y="530" width="120" height="60" as="geometry" />
        </mxCell>
        <mxCell id="ne-NyYdUk1y-TgcKGD3K-26" style="edgeStyle=orthogonalEdgeStyle;rounded=0;orthogonalLoop=1;jettySize=auto;html=1;exitX=0;exitY=0.75;exitDx=0;exitDy=0;strokeColor=#FF9999;strokeWidth=2;" edge="1" parent="1" source="ne-NyYdUk1y-TgcKGD3K-11">
          <mxGeometry relative="1" as="geometry">
            <mxPoint x="440" y="530" as="targetPoint" />
            <Array as="points">
              <mxPoint x="550" y="438" />
              <mxPoint x="550" y="530" />
            </Array>
          </mxGeometry>
        </mxCell>
        <mxCell id="ne-NyYdUk1y-TgcKGD3K-50" style="edgeStyle=orthogonalEdgeStyle;rounded=0;orthogonalLoop=1;jettySize=auto;html=1;entryX=0.25;entryY=0;entryDx=0;entryDy=0;strokeWidth=2;strokeColor=#7EA6E0;" edge="1" parent="1" source="ne-NyYdUk1y-TgcKGD3K-11" target="ne-NyYdUk1y-TgcKGD3K-45">
          <mxGeometry relative="1" as="geometry">
            <Array as="points">
              <mxPoint x="980" y="415" />
              <mxPoint x="980" y="710" />
              <mxPoint x="192" y="710" />
            </Array>
          </mxGeometry>
        </mxCell>
        <mxCell id="ne-NyYdUk1y-TgcKGD3K-11" value="Test Process" style="rounded=1;whiteSpace=wrap;html=1;labelPosition=center;verticalLabelPosition=middle;align=left;verticalAlign=top;spacing=0;spacingLeft=4;fillColor=#fa6800;strokeColor=#C73500;fontColor=#000000;" vertex="1" parent="1">
          <mxGeometry x="600" y="370" width="330" height="90" as="geometry" />
        </mxCell>
        <mxCell id="ne-NyYdUk1y-TgcKGD3K-18" style="edgeStyle=orthogonalEdgeStyle;rounded=0;orthogonalLoop=1;jettySize=auto;html=1;exitX=1;exitY=0.25;exitDx=0;exitDy=0;entryX=0;entryY=0.5;entryDx=0;entryDy=0;strokeColor=#99FF99;strokeWidth=2;" edge="1" parent="1" source="ne-NyYdUk1y-TgcKGD3K-14" target="ne-NyYdUk1y-TgcKGD3K-11">
          <mxGeometry relative="1" as="geometry">
            <Array as="points">
              <mxPoint x="440" y="510" />
              <mxPoint x="520" y="510" />
              <mxPoint x="520" y="415" />
            </Array>
          </mxGeometry>
        </mxCell>
        <mxCell id="ne-NyYdUk1y-TgcKGD3K-7" value="&lt;font style=&quot;font-size: 7px;&quot;&gt;Save Results to CSV / txt&lt;/font&gt;" style="sketch=0;pointerEvents=1;shadow=0;dashed=0;html=1;strokeColor=none;fillColor=#434445;aspect=fixed;labelPosition=center;verticalLabelPosition=top;verticalAlign=bottom;align=center;outlineConnect=0;shape=mxgraph.vvd.log_files;labelBackgroundColor=default;spacing=4;" vertex="1" parent="1">
          <mxGeometry x="860" y="412.5" width="30" height="37.5" as="geometry" />
        </mxCell>
        <mxCell id="ne-NyYdUk1y-TgcKGD3K-23" style="edgeStyle=orthogonalEdgeStyle;rounded=0;orthogonalLoop=1;jettySize=auto;html=1;exitX=1;exitY=0.5;exitDx=0;exitDy=0;entryX=0;entryY=0.5;entryDx=0;entryDy=0;strokeColor=#99FF99;strokeWidth=2;" edge="1" parent="1" source="ne-NyYdUk1y-TgcKGD3K-14" target="ne-NyYdUk1y-TgcKGD3K-19">
          <mxGeometry relative="1" as="geometry" />
        </mxCell>
        <mxCell id="ne-NyYdUk1y-TgcKGD3K-24" style="edgeStyle=orthogonalEdgeStyle;rounded=0;orthogonalLoop=1;jettySize=auto;html=1;exitX=1;exitY=0.75;exitDx=0;exitDy=0;entryX=0;entryY=0.5;entryDx=0;entryDy=0;strokeColor=#99FF99;strokeWidth=2;" edge="1" parent="1" source="ne-NyYdUk1y-TgcKGD3K-14" target="ne-NyYdUk1y-TgcKGD3K-21">
          <mxGeometry relative="1" as="geometry">
            <Array as="points">
              <mxPoint x="440" y="510" />
              <mxPoint x="520" y="510" />
              <mxPoint x="520" y="605" />
            </Array>
          </mxGeometry>
        </mxCell>
        <mxCell id="ne-NyYdUk1y-TgcKGD3K-14" value="Process Assignment" style="rounded=1;whiteSpace=wrap;html=1;verticalAlign=top;fillColor=#d0cee2;strokeColor=#56517e;" vertex="1" parent="1">
          <mxGeometry x="320" y="360" width="120" height="300" as="geometry" />
        </mxCell>
        <mxCell id="ne-NyYdUk1y-TgcKGD3K-32" style="edgeStyle=orthogonalEdgeStyle;rounded=0;orthogonalLoop=1;jettySize=auto;html=1;" edge="1" parent="1" source="ne-NyYdUk1y-TgcKGD3K-3" target="ne-NyYdUk1y-TgcKGD3K-7">
          <mxGeometry relative="1" as="geometry" />
        </mxCell>
        <mxCell id="ne-NyYdUk1y-TgcKGD3K-3" value="&lt;font style=&quot;font-size: 10px;&quot;&gt;Run Test via&lt;br&gt;Champsim&lt;/font&gt;" style="image;aspect=fixed;html=1;points=[];align=center;image=img/lib/azure2/other/Test_Base.svg;labelPosition=center;verticalLabelPosition=top;verticalAlign=middle;spacing=7;" vertex="1" parent="1">
          <mxGeometry x="741.66" y="413.53" width="51.67" height="36.47" as="geometry" />
        </mxCell>
        <mxCell id="ne-NyYdUk1y-TgcKGD3K-15" value="&lt;h1 style=&quot;margin-top: 0px; line-height: 20%;&quot;&gt;&lt;font style=&quot;font-size: 10px;&quot;&gt;Process Assignment&lt;/font&gt;&lt;/h1&gt;&lt;p style=&quot;line-height: 77%;&quot;&gt;&lt;font style=&quot;font-size: 9px;&quot;&gt;Spin up a separate process for each incoming test. Monitor it&#39;s output.&amp;nbsp;&amp;nbsp;&lt;/font&gt;&lt;/p&gt;" style="text;html=1;whiteSpace=wrap;overflow=hidden;rounded=0;align=left;" vertex="1" parent="1">
          <mxGeometry x="230" y="370" width="100" height="80" as="geometry" />
        </mxCell>
        <mxCell id="ne-NyYdUk1y-TgcKGD3K-17" value="Record and send test files and their paths." style="text;html=1;align=center;verticalAlign=middle;whiteSpace=wrap;rounded=0;" vertex="1" parent="1">
          <mxGeometry x="122" y="590" width="118" height="30" as="geometry" />
        </mxCell>
        <mxCell id="ne-NyYdUk1y-TgcKGD3K-48" style="edgeStyle=orthogonalEdgeStyle;rounded=0;orthogonalLoop=1;jettySize=auto;html=1;exitX=1;exitY=0.25;exitDx=0;exitDy=0;strokeColor=#00CC00;" edge="1" parent="1" source="ne-NyYdUk1y-TgcKGD3K-19">
          <mxGeometry relative="1" as="geometry">
            <mxPoint x="1120" y="530" as="targetPoint" />
            <Array as="points">
              <mxPoint x="1020" y="487" />
              <mxPoint x="1020" y="531" />
              <mxPoint x="1120" y="531" />
            </Array>
          </mxGeometry>
        </mxCell>
        <mxCell id="ne-NyYdUk1y-TgcKGD3K-51" style="edgeStyle=orthogonalEdgeStyle;rounded=0;orthogonalLoop=1;jettySize=auto;html=1;entryX=0.5;entryY=0;entryDx=0;entryDy=0;strokeWidth=2;strokeColor=#7EA6E0;" edge="1" parent="1" source="ne-NyYdUk1y-TgcKGD3K-19" target="ne-NyYdUk1y-TgcKGD3K-45">
          <mxGeometry relative="1" as="geometry">
            <Array as="points">
              <mxPoint x="980" y="510" />
              <mxPoint x="980" y="710" />
              <mxPoint x="275" y="710" />
            </Array>
          </mxGeometry>
        </mxCell>
        <mxCell id="ne-NyYdUk1y-TgcKGD3K-19" value="Test Process" style="rounded=1;whiteSpace=wrap;html=1;labelPosition=center;verticalLabelPosition=middle;align=left;verticalAlign=top;spacing=0;spacingLeft=4;fillColor=#fa6800;strokeColor=#C73500;fontColor=#000000;" vertex="1" parent="1">
          <mxGeometry x="600" y="465" width="330" height="90" as="geometry" />
        </mxCell>
        <mxCell id="ne-NyYdUk1y-TgcKGD3K-27" style="edgeStyle=orthogonalEdgeStyle;rounded=0;orthogonalLoop=1;jettySize=auto;html=1;exitX=0;exitY=0.25;exitDx=0;exitDy=0;strokeColor=#FF9999;strokeWidth=2;" edge="1" parent="1" source="ne-NyYdUk1y-TgcKGD3K-21">
          <mxGeometry relative="1" as="geometry">
            <mxPoint x="440" y="530" as="targetPoint" />
            <Array as="points">
              <mxPoint x="550" y="583" />
              <mxPoint x="550" y="530" />
            </Array>
          </mxGeometry>
        </mxCell>
        <mxCell id="ne-NyYdUk1y-TgcKGD3K-49" style="edgeStyle=orthogonalEdgeStyle;rounded=0;orthogonalLoop=1;jettySize=auto;html=1;exitX=1;exitY=0.25;exitDx=0;exitDy=0;strokeColor=#00CC00;" edge="1" parent="1" source="ne-NyYdUk1y-TgcKGD3K-21">
          <mxGeometry relative="1" as="geometry">
            <mxPoint x="1120" y="530" as="targetPoint" />
            <Array as="points">
              <mxPoint x="1020" y="582" />
              <mxPoint x="1020" y="530" />
            </Array>
          </mxGeometry>
        </mxCell>
        <mxCell id="ne-NyYdUk1y-TgcKGD3K-52" style="edgeStyle=orthogonalEdgeStyle;rounded=0;orthogonalLoop=1;jettySize=auto;html=1;entryX=0.75;entryY=0;entryDx=0;entryDy=0;strokeWidth=2;strokeColor=#7EA6E0;" edge="1" parent="1" source="ne-NyYdUk1y-TgcKGD3K-21" target="ne-NyYdUk1y-TgcKGD3K-45">
          <mxGeometry relative="1" as="geometry">
            <Array as="points">
              <mxPoint x="980" y="605" />
              <mxPoint x="980" y="710" />
              <mxPoint x="358" y="710" />
            </Array>
          </mxGeometry>
        </mxCell>
        <mxCell id="ne-NyYdUk1y-TgcKGD3K-21" value="Test Process" style="rounded=1;whiteSpace=wrap;html=1;labelPosition=center;verticalLabelPosition=middle;align=left;verticalAlign=top;spacing=0;spacingLeft=4;fillColor=#fa6800;strokeColor=#C73500;fontColor=#000000;" vertex="1" parent="1">
          <mxGeometry x="600" y="560" width="330" height="90" as="geometry" />
        </mxCell>
        <mxCell id="ne-NyYdUk1y-TgcKGD3K-25" style="edgeStyle=orthogonalEdgeStyle;rounded=0;orthogonalLoop=1;jettySize=auto;html=1;exitX=0;exitY=0.75;exitDx=0;exitDy=0;entryX=0.981;entryY=0.082;entryDx=0;entryDy=0;entryPerimeter=0;strokeColor=#FF9999;strokeWidth=2;" edge="1" parent="1" source="ne-NyYdUk1y-TgcKGD3K-19" target="ne-NyYdUk1y-TgcKGD3K-54">
          <mxGeometry relative="1" as="geometry">
            <Array as="points">
              <mxPoint x="600" y="530" />
              <mxPoint x="440" y="530" />
              <mxPoint x="440" y="531" />
            </Array>
          </mxGeometry>
        </mxCell>
        <mxCell id="ne-NyYdUk1y-TgcKGD3K-28" value="&lt;p style=&quot;line-height: 140%;&quot;&gt;&lt;b&gt;Test Ingestion&lt;/b&gt;&lt;/p&gt;" style="text;html=1;align=center;verticalAlign=middle;whiteSpace=wrap;rounded=0;" vertex="1" parent="1">
          <mxGeometry x="520" y="385" width="60" height="30" as="geometry" />
        </mxCell>
        <mxCell id="ne-NyYdUk1y-TgcKGD3K-29" value="&lt;p style=&quot;line-height: 80%;&quot;&gt;&lt;font style=&quot;font-size: 7px;&quot;&gt;&lt;b&gt;&amp;nbsp;Main Thread notified of process status and errors&lt;/b&gt;&lt;/font&gt;&lt;/p&gt;" style="text;html=1;align=center;verticalAlign=middle;whiteSpace=wrap;rounded=0;" vertex="1" parent="1">
          <mxGeometry x="460" y="525" width="90" height="30" as="geometry" />
        </mxCell>
        <mxCell id="ne-NyYdUk1y-TgcKGD3K-30" value="&lt;font style=&quot;font-size: 10px;&quot;&gt;Compile Test file&lt;/font&gt;" style="image;aspect=fixed;html=1;points=[];align=center;fontSize=12;image=img/lib/azure2/general/Load_Test.svg;labelPosition=center;verticalLabelPosition=top;verticalAlign=bottom;spacing=9;" vertex="1" parent="1">
          <mxGeometry x="650" y="418.76" width="26.79" height="26" as="geometry" />
        </mxCell>
        <mxCell id="ne-NyYdUk1y-TgcKGD3K-31" style="edgeStyle=orthogonalEdgeStyle;rounded=0;orthogonalLoop=1;jettySize=auto;html=1;entryX=0.022;entryY=0.523;entryDx=0;entryDy=0;entryPerimeter=0;" edge="1" parent="1" source="ne-NyYdUk1y-TgcKGD3K-30" target="ne-NyYdUk1y-TgcKGD3K-3">
          <mxGeometry relative="1" as="geometry" />
        </mxCell>
        <mxCell id="ne-NyYdUk1y-TgcKGD3K-33" value="&lt;font style=&quot;font-size: 7px;&quot;&gt;Save Results to CSV / txt&lt;/font&gt;" style="sketch=0;pointerEvents=1;shadow=0;dashed=0;html=1;strokeColor=none;fillColor=#434445;aspect=fixed;labelPosition=center;verticalLabelPosition=top;verticalAlign=bottom;align=center;outlineConnect=0;shape=mxgraph.vvd.log_files;labelBackgroundColor=default;spacing=4;" vertex="1" parent="1">
          <mxGeometry x="860" y="513" width="30" height="37.5" as="geometry" />
        </mxCell>
        <mxCell id="ne-NyYdUk1y-TgcKGD3K-40" style="edgeStyle=orthogonalEdgeStyle;rounded=0;orthogonalLoop=1;jettySize=auto;html=1;" edge="1" parent="1" source="ne-NyYdUk1y-TgcKGD3K-34" target="ne-NyYdUk1y-TgcKGD3K-33">
          <mxGeometry relative="1" as="geometry" />
        </mxCell>
        <mxCell id="ne-NyYdUk1y-TgcKGD3K-34" value="&lt;font style=&quot;font-size: 10px;&quot;&gt;Run Test via&lt;br&gt;Champsim&lt;/font&gt;" style="image;aspect=fixed;html=1;points=[];align=center;image=img/lib/azure2/other/Test_Base.svg;labelPosition=center;verticalLabelPosition=top;verticalAlign=middle;spacing=7;" vertex="1" parent="1">
          <mxGeometry x="741.66" y="514.03" width="51.67" height="36.47" as="geometry" />
        </mxCell>
        <mxCell id="ne-NyYdUk1y-TgcKGD3K-39" style="edgeStyle=orthogonalEdgeStyle;rounded=0;orthogonalLoop=1;jettySize=auto;html=1;" edge="1" parent="1" source="ne-NyYdUk1y-TgcKGD3K-35" target="ne-NyYdUk1y-TgcKGD3K-34">
          <mxGeometry relative="1" as="geometry" />
        </mxCell>
        <mxCell id="ne-NyYdUk1y-TgcKGD3K-35" value="&lt;font style=&quot;font-size: 10px;&quot;&gt;Compile Test file&lt;/font&gt;" style="image;aspect=fixed;html=1;points=[];align=center;fontSize=12;image=img/lib/azure2/general/Load_Test.svg;labelPosition=center;verticalLabelPosition=top;verticalAlign=bottom;spacing=9;" vertex="1" parent="1">
          <mxGeometry x="650" y="519.26" width="26.79" height="26" as="geometry" />
        </mxCell>
        <mxCell id="ne-NyYdUk1y-TgcKGD3K-36" value="&lt;font style=&quot;font-size: 7px;&quot;&gt;Save Results to CSV / txt&lt;/font&gt;" style="sketch=0;pointerEvents=1;shadow=0;dashed=0;html=1;strokeColor=none;fillColor=#434445;aspect=fixed;labelPosition=center;verticalLabelPosition=top;verticalAlign=bottom;align=center;outlineConnect=0;shape=mxgraph.vvd.log_files;labelBackgroundColor=default;spacing=4;" vertex="1" parent="1">
          <mxGeometry x="860" y="610" width="30" height="37.5" as="geometry" />
        </mxCell>
        <mxCell id="ne-NyYdUk1y-TgcKGD3K-41" style="edgeStyle=orthogonalEdgeStyle;rounded=0;orthogonalLoop=1;jettySize=auto;html=1;" edge="1" parent="1" source="ne-NyYdUk1y-TgcKGD3K-37" target="ne-NyYdUk1y-TgcKGD3K-36">
          <mxGeometry relative="1" as="geometry" />
        </mxCell>
        <mxCell id="ne-NyYdUk1y-TgcKGD3K-37" value="&lt;font style=&quot;font-size: 10px;&quot;&gt;Run Test via&lt;br&gt;Champsim&lt;/font&gt;" style="image;aspect=fixed;html=1;points=[];align=center;image=img/lib/azure2/other/Test_Base.svg;labelPosition=center;verticalLabelPosition=top;verticalAlign=middle;spacing=7;" vertex="1" parent="1">
          <mxGeometry x="741.66" y="611.03" width="51.67" height="36.47" as="geometry" />
        </mxCell>
        <mxCell id="ne-NyYdUk1y-TgcKGD3K-42" style="edgeStyle=orthogonalEdgeStyle;rounded=0;orthogonalLoop=1;jettySize=auto;html=1;" edge="1" parent="1" source="ne-NyYdUk1y-TgcKGD3K-38" target="ne-NyYdUk1y-TgcKGD3K-37">
          <mxGeometry relative="1" as="geometry" />
        </mxCell>
        <mxCell id="ne-NyYdUk1y-TgcKGD3K-65" style="edgeStyle=orthogonalEdgeStyle;rounded=0;orthogonalLoop=1;jettySize=auto;html=1;" edge="1" parent="1" source="ne-NyYdUk1y-TgcKGD3K-64" target="ne-NyYdUk1y-TgcKGD3K-46">
          <mxGeometry relative="1" as="geometry" />
        </mxCell>
        <mxCell id="ne-NyYdUk1y-TgcKGD3K-64" value="FAST API Endpoint" style="rounded=1;whiteSpace=wrap;html=1;verticalAlign=top;fillColor=#f9f7ed;strokeColor=#36393d;" vertex="1" parent="1">
          <mxGeometry x="1135" y="450" width="120" height="170" as="geometry" />
        </mxCell>
        <mxCell id="ne-NyYdUk1y-TgcKGD3K-38" value="&lt;font style=&quot;font-size: 10px;&quot;&gt;Compile Test file&lt;/font&gt;" style="image;aspect=fixed;html=1;points=[];align=center;fontSize=12;image=img/lib/azure2/general/Load_Test.svg;labelPosition=center;verticalLabelPosition=top;verticalAlign=bottom;spacing=9;" vertex="1" parent="1">
          <mxGeometry x="650" y="616.26" width="26.79" height="26" as="geometry" />
        </mxCell>
        <mxCell id="ne-NyYdUk1y-TgcKGD3K-44" value="" style="verticalLabelPosition=top;verticalAlign=bottom;html=1;shape=mxgraph.basic.flash;strokeColor=#00CC00;fillStyle=solid;fillColor=#99FF99;labelPosition=center;align=center;" vertex="1" parent="1">
          <mxGeometry x="1170" y="485" width="30" height="50" as="geometry" />
        </mxCell>
        <mxCell id="ne-NyYdUk1y-TgcKGD3K-67" style="edgeStyle=orthogonalEdgeStyle;rounded=0;orthogonalLoop=1;jettySize=auto;html=1;entryX=0.5;entryY=0;entryDx=0;entryDy=0;" edge="1" parent="1" source="ne-NyYdUk1y-TgcKGD3K-45" target="ne-NyYdUk1y-TgcKGD3K-66">
          <mxGeometry relative="1" as="geometry" />
        </mxCell>
        <mxCell id="ne-NyYdUk1y-TgcKGD3K-45" value="&lt;b&gt;Result Ingestion&lt;/b&gt;" style="rounded=1;whiteSpace=wrap;html=1;labelPosition=center;verticalLabelPosition=middle;align=center;verticalAlign=middle;fillColor=#b1ddf0;strokeColor=#10739e;" vertex="1" parent="1">
          <mxGeometry x="110" y="740" width="330" height="60" as="geometry" />
        </mxCell>
        <mxCell id="ne-NyYdUk1y-TgcKGD3K-46" value="" style="dashed=0;outlineConnect=0;html=1;align=center;labelPosition=center;verticalLabelPosition=bottom;verticalAlign=top;shape=mxgraph.weblogos.google_drive" vertex="1" parent="1">
          <mxGeometry x="1300" y="506" width="66.4" height="58" as="geometry" />
        </mxCell>
        <mxCell id="ne-NyYdUk1y-TgcKGD3K-47" style="edgeStyle=orthogonalEdgeStyle;rounded=0;orthogonalLoop=1;jettySize=auto;html=1;exitX=1;exitY=0.25;exitDx=0;exitDy=0;entryX=-0.003;entryY=0.086;entryDx=0;entryDy=0;entryPerimeter=0;strokeColor=#00CC00;" edge="1" parent="1">
          <mxGeometry relative="1" as="geometry">
            <mxPoint x="930" y="393.27" as="sourcePoint" />
            <mxPoint x="1119.19" y="530.0035799999999" as="targetPoint" />
            <Array as="points">
              <mxPoint x="1020" y="393" />
              <mxPoint x="1020" y="530" />
            </Array>
          </mxGeometry>
        </mxCell>
        <mxCell id="ne-NyYdUk1y-TgcKGD3K-53" value="Log File paths sent back for parsing" style="text;html=1;align=center;verticalAlign=middle;whiteSpace=wrap;rounded=0;" vertex="1" parent="1">
          <mxGeometry x="610" y="700.26" width="200" height="30" as="geometry" />
        </mxCell>
        <mxCell id="ne-NyYdUk1y-TgcKGD3K-54" value="Exception Handler" style="rounded=1;whiteSpace=wrap;html=1;verticalAlign=top;fillColor=#ffcccc;strokeColor=#36393d;" vertex="1" parent="1">
          <mxGeometry x="320" y="520" width="120" height="139" as="geometry" />
        </mxCell>
        <mxCell id="ne-NyYdUk1y-TgcKGD3K-56" style="edgeStyle=orthogonalEdgeStyle;rounded=0;orthogonalLoop=1;jettySize=auto;html=1;" edge="1" parent="1" source="ne-NyYdUk1y-TgcKGD3K-55" target="ne-NyYdUk1y-TgcKGD3K-57">
          <mxGeometry relative="1" as="geometry" />
        </mxCell>
        <mxCell id="ne-NyYdUk1y-TgcKGD3K-55" value="&lt;font style=&quot;font-size: 10px;&quot;&gt;Stop Process&lt;/font&gt;" style="rounded=1;whiteSpace=wrap;html=1;" vertex="1" parent="1">
          <mxGeometry x="345" y="550.5" width="70" height="35" as="geometry" />
        </mxCell>
        <mxCell id="ne-NyYdUk1y-TgcKGD3K-57" value="&lt;font style=&quot;font-size: 10px;&quot;&gt;Write to&lt;br&gt;Error log&lt;/font&gt;" style="sketch=0;pointerEvents=1;shadow=0;dashed=0;html=1;strokeColor=none;fillColor=#434445;aspect=fixed;labelPosition=right;verticalLabelPosition=middle;verticalAlign=middle;align=left;outlineConnect=0;shape=mxgraph.vvd.log_files;" vertex="1" parent="1">
          <mxGeometry x="365" y="612.5" width="30" height="37.5" as="geometry" />
        </mxCell>
        <mxCell id="ne-NyYdUk1y-TgcKGD3K-58" style="edgeStyle=orthogonalEdgeStyle;rounded=0;orthogonalLoop=1;jettySize=auto;html=1;entryX=0.5;entryY=0;entryDx=0;entryDy=0;strokeWidth=2;strokeColor=#007FFF;" edge="1" parent="1" source="ne-NyYdUk1y-TgcKGD3K-9" target="ne-NyYdUk1y-TgcKGD3K-45">
          <mxGeometry relative="1" as="geometry">
            <Array as="points">
              <mxPoint x="275" y="677" />
            </Array>
          </mxGeometry>
        </mxCell>
        <mxCell id="ne-NyYdUk1y-TgcKGD3K-59" value="Google Drive Log Files sent back" style="edgeLabel;html=1;align=center;verticalAlign=middle;resizable=0;points=[];" vertex="1" connectable="0" parent="ne-NyYdUk1y-TgcKGD3K-58">
          <mxGeometry x="-0.0849" y="-1" relative="1" as="geometry">
            <mxPoint x="6" y="-4" as="offset" />
          </mxGeometry>
        </mxCell>
        <mxCell id="ne-NyYdUk1y-TgcKGD3K-61" value="Uploads to google drive.&lt;div&gt;&lt;br&gt;&lt;br&gt;&lt;/div&gt;" style="text;html=1;align=center;verticalAlign=middle;whiteSpace=wrap;rounded=0;" vertex="1" parent="1">
          <mxGeometry x="1150" y="545" width="80" height="55" as="geometry" />
        </mxCell>
        <mxCell id="ne-NyYdUk1y-TgcKGD3K-63" value="Previous test results can be sent back for parsing, skipping the re-testing of existing ChampSim results." style="text;html=1;align=center;verticalAlign=middle;whiteSpace=wrap;rounded=0;" vertex="1" parent="1">
          <mxGeometry x="1135" y="670.26" width="215" height="30" as="geometry" />
        </mxCell>
        <mxCell id="ne-NyYdUk1y-TgcKGD3K-70" style="edgeStyle=orthogonalEdgeStyle;rounded=0;orthogonalLoop=1;jettySize=auto;html=1;" edge="1" parent="1" source="ne-NyYdUk1y-TgcKGD3K-66" target="ne-NyYdUk1y-TgcKGD3K-69">
          <mxGeometry relative="1" as="geometry" />
        </mxCell>
        <mxCell id="ne-NyYdUk1y-TgcKGD3K-66" value="Parse CSV / Log" style="rounded=1;whiteSpace=wrap;html=1;" vertex="1" parent="1">
          <mxGeometry x="215" y="840" width="120" height="60" as="geometry" />
        </mxCell>
        <mxCell id="ne-NyYdUk1y-TgcKGD3K-73" style="edgeStyle=orthogonalEdgeStyle;rounded=0;orthogonalLoop=1;jettySize=auto;html=1;" edge="1" parent="1" source="ne-NyYdUk1y-TgcKGD3K-69" target="ne-NyYdUk1y-TgcKGD3K-72">
          <mxGeometry relative="1" as="geometry" />
        </mxCell>
        <mxCell id="ne-NyYdUk1y-TgcKGD3K-69" value="&lt;font style=&quot;font-size: 12px;&quot;&gt;Filter results by Cache size, .....&lt;/font&gt;" style="html=1;strokeWidth=2;outlineConnect=0;dashed=0;align=left;fontSize=10;fillColor=#c0f5a9;verticalLabelPosition=top;verticalAlign=bottom;shape=mxgraph.eip.message_filter;labelPosition=right;spacingRight=-5;spacing=2;spacingBottom=0;spacingLeft=-70;" vertex="1" parent="1">
          <mxGeometry x="200" y="940" width="150" height="90" as="geometry" />
        </mxCell>
        <mxCell id="ne-NyYdUk1y-TgcKGD3K-72" value="&lt;font color=&quot;#000000&quot;&gt;Generate graphs&lt;/font&gt;" style="sketch=0;points=[[0,0,0],[0.25,0,0],[0.5,0,0],[0.75,0,0],[1,0,0],[0,1,0],[0.25,1,0],[0.5,1,0],[0.75,1,0],[1,1,0],[0,0.25,0],[0,0.5,0],[0,0.75,0],[1,0.25,0],[1,0.5,0],[1,0.75,0]];outlineConnect=0;fontColor=#232F3E;fillColor=#7AA116;strokeColor=#ffffff;dashed=0;verticalLabelPosition=top;verticalAlign=bottom;align=left;html=1;fontSize=12;fontStyle=0;aspect=fixed;shape=mxgraph.aws4.resourceIcon;resIcon=mxgraph.aws4.iot_things_graph;labelPosition=right;" vertex="1" parent="1">
          <mxGeometry x="236" y="1060" width="78" height="78" as="geometry" />
        </mxCell>
        <mxCell id="ne-NyYdUk1y-TgcKGD3K-74" value="Display" style="verticalLabelPosition=bottom;html=1;verticalAlign=top;align=center;strokeColor=none;fillColor=#00BEF2;shape=mxgraph.azure.computer;pointerEvents=1;" vertex="1" parent="1">
          <mxGeometry x="250" y="1190" width="50" height="45" as="geometry" />
        </mxCell>
        <mxCell id="ne-NyYdUk1y-TgcKGD3K-75" style="edgeStyle=orthogonalEdgeStyle;rounded=0;orthogonalLoop=1;jettySize=auto;html=1;entryX=0.5;entryY=0;entryDx=0;entryDy=0;entryPerimeter=0;" edge="1" parent="1" source="ne-NyYdUk1y-TgcKGD3K-72" target="ne-NyYdUk1y-TgcKGD3K-74">
          <mxGeometry relative="1" as="geometry" />
        </mxCell>
      </root>
    </mxGraphModel>
  </diagram>
</mxfile>
